<?xml version="1.0" standalone="no"?>
<!DOCTYPE svg PUBLIC "-//W3C//DTD SVG 20010904//EN"
 "http://www.w3.org/TR/2001/REC-SVG-20010904/DTD/svg10.dtd">
<svg version="1.0" xmlns="http://www.w3.org/2000/svg"
 width="980.000000pt" height="988.000000pt" viewBox="0 0 980.000000 988.000000"
 preserveAspectRatio="xMidYMid meet">
<metadata>
Created by potrace 1.16, written by Peter Selinger 2001-2019
</metadata>
<g transform="translate(0.000000,988.000000) scale(0.100000,-0.100000)"
fill="#FFFFFF" stroke="none">
<path d="M4372 9870 c-551 -43 -1080 -251 -1532 -600 -123 -96 -377 -349 -470
-470 -245 -318 -423 -677 -516 -1039 -157 -613 -108 -1216 146 -1791 187 -425
518 -839 893 -1118 37 -28 64 -52 60 -55 -4 -2 -26 -10 -48 -17 -79 -25 -332
-135 -454 -198 -625 -321 -1162 -838 -1569 -1510 -99 -163 -287 -536 -362
-717 -280 -681 -468 -1501 -516 -2247 l-6 -108 3451 0 c1898 0 3451 3 3451 6
0 3 -15 24 -34 47 -45 56 -91 140 -117 213 -44 128 -49 184 -49 604 l0 398
-412 5 c-445 5 -477 8 -613 62 -156 63 -310 177 -404 301 -60 80 -143 243
-166 329 -26 94 -31 294 -11 396 70 343 334 622 682 720 75 21 102 22 502 26
l422 5 0 392 c0 473 6 518 101 723 l37 82 -126 83 c-186 121 -366 228 -475
284 -54 27 -97 51 -97 54 0 3 14 14 32 25 81 48 280 208 390 313 442 426 716
957 809 1565 26 169 36 519 20 678 -38 369 -125 672 -287 999 -140 283 -308
515 -539 745 -445 444 -1016 723 -1634 799 -154 20 -418 27 -559 16z"/>
<path d="M7502 4284 c-101 -37 -208 -181 -232 -313 -6 -32 -10 -303 -10 -672
l0 -618 -647 -3 -648 -3 -60 -30 c-91 -46 -178 -133 -223 -223 -34 -70 -37
-83 -37 -161 0 -76 4 -94 32 -153 54 -114 163 -213 277 -251 44 -15 119 -17
678 -17 l628 0 0 -648 c0 -705 0 -710 57 -814 35 -65 137 -159 210 -194 52
-26 68 -29 158 -29 90 0 106 3 160 29 70 34 182 140 214 203 50 99 51 114 51
770 l0 613 663 0 c631 0 667 1 720 19 148 51 282 207 302 352 5 37 2 65 -15
116 -64 196 -175 307 -338 342 -36 7 -269 11 -727 11 l-675 0 0 639 c0 389 -4
659 -10 692 -16 84 -57 158 -129 230 -90 90 -159 122 -271 126 -59 2 -98 -2
-128 -13z"/>
<path d="M8598 843 c-4 -403 -5 -433 -26 -506 -27 -100 -70 -189 -127 -266
-25 -34 -45 -63 -45 -66 0 -3 109 -5 242 -5 l241 0 -6 168 c-7 174 -27 404
-53 602 -17 136 -74 482 -81 493 -2 4 -35 7 -73 7 l-69 0 -3 -427z"/>
</g>
</svg>
