<?xml version="1.0" standalone="no"?>
<!DOCTYPE svg PUBLIC "-//W3C//DTD SVG 20010904//EN"
 "http://www.w3.org/TR/2001/REC-SVG-20010904/DTD/svg10.dtd">
<svg version="1.0" xmlns="http://www.w3.org/2000/svg"
 width="840.000000pt" height="880.000000pt" viewBox="0 0 840.000000 880.000000"
 preserveAspectRatio="xMidYMid meet">
<metadata>
Created by potrace 1.16, written by Peter Selinger 2001-2019
</metadata>
<g transform="translate(0.000000,880.000000) scale(0.100000,-0.100000)"
fill="#2DCC70" stroke="none">
<path d="M4075 8385 c-219 -48 -388 -180 -488 -380 -77 -153 -71 -31 -74
-1552 l-4 -1362 -1362 -4 c-1523 -3 -1397 3 -1555 -75 -191 -95 -334 -278
-376 -484 -63 -306 93 -622 378 -762 154 -76 33 -70 1553 -74 l1363 -3 2
-1357 c4 -1512 -2 -1395 73 -1547 68 -138 171 -241 310 -310 342 -168 762 -36
935 295 81 156 74 30 78 1557 l3 1362 1362 3 c1254 3 1367 5 1419 21 401 120
608 545 457 938 -60 155 -180 289 -324 360 -163 80 -37 73 -1557 77 l-1357 2
-3 1363 c-4 1518 2 1397 -73 1552 -135 280 -465 445 -760 380z"/>
</g>
</svg>
