<?xml version="1.0" standalone="no"?>
<!DOCTYPE svg PUBLIC "-//W3C//DTD SVG 20010904//EN"
 "http://www.w3.org/TR/2001/REC-SVG-20010904/DTD/svg10.dtd">
<svg version="1.0" xmlns="http://www.w3.org/2000/svg"
 width="228.000000pt" height="221.000000pt" viewBox="0 0 228.000000 221.000000"
 preserveAspectRatio="xMidYMid meet">
<metadata>
Created by potrace 1.16, written by Peter Selinger 2001-2019
</metadata>
<g transform="translate(0.000000,221.000000) scale(0.100000,-0.100000)"
fill="#000000" stroke="none">
<path d="M925 2086 c-275 -53 -514 -194 -661 -389 -228 -303 -206 -705 54
-997 l48 -55 -28 -205 c-15 -113 -27 -213 -26 -223 2 -14 42 8 192 104 l190
121 88 -27 c713 -219 1453 258 1388 895 -19 178 -94 332 -230 470 -47 48 -114
106 -149 130 -94 63 -233 125 -346 156 -87 23 -124 27 -275 30 -119 2 -198 -1
-245 -10z m490 -110 c331 -86 577 -310 650 -591 19 -74 19 -221 0 -301 -108
-459 -696 -742 -1221 -587 -49 14 -112 26 -141 26 -46 0 -62 -6 -158 -67 -59
-37 -110 -65 -112 -62 -3 3 2 59 11 124 20 146 13 175 -68 264 -148 163 -209
404 -156 612 77 304 381 548 755 606 110 17 328 5 440 -24z"/>
<path d="M604 1356 c-28 -28 -34 -42 -34 -75 0 -77 51 -131 122 -131 37 0 88
38 104 77 22 51 11 95 -32 132 -28 25 -44 31 -80 31 -39 0 -51 -5 -80 -34z"/>
<path d="M1108 1374 c-35 -18 -58 -62 -58 -109 0 -26 9 -45 34 -73 31 -33 39
-37 85 -37 43 0 55 5 82 31 100 101 -18 256 -143 188z"/>
<path d="M1584 1371 c-30 -18 -54 -64 -54 -103 0 -52 66 -118 118 -118 38 0
92 30 107 61 8 15 15 47 15 70 0 33 -6 47 -34 75 -28 28 -41 34 -77 34 -26 0
-57 -8 -75 -19z"/>
</g>
</svg>
