<?xml version="1.0" standalone="no"?>
<!DOCTYPE svg PUBLIC "-//W3C//DTD SVG 20010904//EN"
 "http://www.w3.org/TR/2001/REC-SVG-20010904/DTD/svg10.dtd">
<svg version="1.0" xmlns="http://www.w3.org/2000/svg"
 width="512.000000pt" height="512.000000pt" viewBox="0 0 512.000000 512.000000"
 preserveAspectRatio="xMidYMid meet">
<metadata>
Created by potrace 1.16, written by Peter Selinger 2001-2019
</metadata>
<g transform="translate(0.000000,512.000000) scale(0.100000,-0.100000)"
fill="#000000" stroke="none">
<path d="M2354 4090 c-652 -48 -1130 -308 -1376 -750 -67 -121 -122 -292 -147
-457 -15 -102 -13 -351 4 -463 63 -416 306 -759 681 -961 51 -28 94 -55 94
-59 0 -19 -30 -138 -48 -190 -34 -97 -81 -183 -157 -285 -41 -55 -74 -104 -75
-109 0 -14 361 1 465 19 254 44 451 143 630 316 l70 68 192 10 c218 12 364 31
508 67 530 134 885 432 1033 869 103 304 103 676 0 980 -174 513 -638 842
-1308 929 -146 19 -422 27 -566 16z m400 -215 c197 -9 423 -57 596 -126 476
-190 740 -582 740 -1096 0 -510 -261 -903 -720 -1090 -217 -87 -420 -123 -747
-130 l-242 -5 -17 -27 c-30 -45 -126 -142 -192 -191 -88 -67 -211 -126 -326
-155 -133 -34 -129 -34 -105 23 27 61 65 216 79 317 6 44 13 94 15 111 5 31 4
32 -72 64 -238 98 -425 245 -548 430 -221 332 -246 849 -58 1215 203 398 645
632 1252 664 80 4 166 6 191 4 25 -1 94 -5 154 -8z"/>
</g>
</svg>
