<?xml version="1.0" standalone="no"?>
<!DOCTYPE svg PUBLIC "-//W3C//DTD SVG 20010904//EN"
 "http://www.w3.org/TR/2001/REC-SVG-20010904/DTD/svg10.dtd">
<svg version="1.0" xmlns="http://www.w3.org/2000/svg"
 width="840.000000pt" height="881.000000pt" viewBox="0 0 840.000000 881.000000"
 preserveAspectRatio="xMidYMid meet">
<metadata>
Created by potrace 1.16, written by Peter Selinger 2001-2019
</metadata>
<g transform="translate(0.000000,881.000000) scale(0.100000,-0.100000)"
fill="#FFFFFF" stroke="none">
<path d="M3380 8399 c-223 -14 -454 -91 -680 -227 -475 -287 -813 -806 -909
-1397 -36 -218 -29 -592 15 -818 143 -735 668 -1338 1316 -1512 647 -174 1343
89 1773 669 175 237 298 522 367 848 32 151 32 157 32 428 1 293 -6 361 -60
567 -143 554 -483 1009 -939 1258 -190 104 -413 171 -597 180 -62 3 -131 7
-153 9 -22 1 -96 -1 -165 -5z"/>
<path d="M2280 4147 c-644 -339 -1388 -750 -1621 -893 -146 -90 -311 -280
-389 -446 -62 -132 -87 -364 -56 -518 64 -315 305 -578 621 -680 65 -21 95
-23 415 -30 190 -3 1083 -7 1986 -8 l1641 -2 6 88 c7 108 28 194 72 288 140
304 436 517 769 554 112 13 224 1 350 -35 161 -47 252 -98 386 -216 l82 -72
46 44 c110 105 234 236 249 263 32 60 -3 239 -75 381 -66 132 -167 245 -308
346 -103 74 -266 167 -669 384 -181 98 -525 286 -763 418 -239 131 -441 241
-450 244 -10 2 -77 -23 -151 -57 -260 -118 -493 -180 -756 -202 -335 -27 -675
39 -1007 196 -64 30 -127 58 -140 61 -17 4 -82 -25 -238 -108z"/>
<path d="M7635 2526 c-133 -33 -180 -73 -792 -680 l-281 -279 -179 171 c-211
203 -300 276 -370 302 -116 43 -294 35 -389 -19 -110 -64 -197 -167 -228 -270
-34 -114 -14 -294 40 -373 107 -155 725 -804 852 -895 80 -57 135 -74 247 -75
188 -2 215 17 689 476 332 322 809 814 880 909 71 94 87 134 93 232 10 160
-29 265 -136 368 -127 123 -277 170 -426 133z"/>
</g>
</svg>
