<?xml version="1.0" standalone="no"?>
<!DOCTYPE svg PUBLIC "-//W3C//DTD SVG 20010904//EN"
 "http://www.w3.org/TR/2001/REC-SVG-20010904/DTD/svg10.dtd">
<svg version="1.0" xmlns="http://www.w3.org/2000/svg"
 width="225.000000pt" height="225.000000pt" viewBox="0 0 225.000000 225.000000"
 preserveAspectRatio="xMidYMid meet">
<metadata>
Created by potrace 1.16, written by Peter Selinger 2001-2019
</metadata>
<g transform="translate(0.000000,225.000000) scale(0.100000,-0.100000)"
fill="#2DCC70" stroke="none">
<path d="M431 1824 c-51 -36 -51 -35 -51 -725 0 -703 -1 -686 59 -722 27 -16
84 -17 681 -17 723 0 703 -2 734 65 14 29 16 111 16 674 0 690 0 689 -51 725
-21 14 -90 16 -694 16 -604 0 -673 -2 -694 -16z m1337 -76 c15 -15 18 -1113 3
-1103 -6 3 -96 107 -201 230 -105 124 -204 232 -220 240 -40 21 -109 19 -147
-4 -17 -11 -99 -107 -182 -215 l-152 -195 -44 31 c-36 26 -55 32 -95 32 -59 0
-86 -17 -148 -95 -24 -30 -59 -72 -77 -94 l-34 -40 0 601 c-1 454 2 603 11
612 17 17 1269 17 1286 0z m-213 -991 c143 -169 225 -274 223 -285 -3 -16 -31
-17 -365 -20 l-361 -2 -67 85 -66 85 162 210 c89 115 169 211 178 213 39 9 79
-30 296 -286z m-795 -87 c5 0 47 -49 94 -110 l86 -110 -205 0 c-113 0 -205 2
-205 5 0 3 34 49 76 103 77 98 108 125 132 117 8 -3 17 -5 22 -5z"/>
<path d="M754 1331 c-107 -49 -133 -184 -50 -267 65 -65 167 -65 232 0 64 64
69 157 11 223 -55 63 -119 78 -193 44z m121 -96 c40 -39 32 -96 -16 -120 -40
-21 -57 -19 -90 14 -35 36 -37 69 -4 105 32 34 77 35 110 1z"/>
</g>
</svg>
