<?xml version="1.0" standalone="no"?>
<!DOCTYPE svg PUBLIC "-//W3C//DTD SVG 20010904//EN"
 "http://www.w3.org/TR/2001/REC-SVG-20010904/DTD/svg10.dtd">
<svg version="1.0" xmlns="http://www.w3.org/2000/svg"
 width="900.000000pt" height="520.000000pt" viewBox="0 0 900.000000 520.000000"
 preserveAspectRatio="xMidYMid meet">
<metadata>
Created by potrace 1.16, written by Peter Selinger 2001-2019
</metadata>
<g transform="translate(0.000000,520.000000) scale(0.100000,-0.100000)"
fill="#000000" stroke="none">
<path d="M4750 4864 c-69 -18 -153 -76 -194 -132 l-31 -44 -5 -321 c-6 -364 4
-312 -110 -592 -98 -240 -201 -432 -310 -575 -59 -77 -190 -210 -208 -210 -5
0 -12 31 -14 68 -9 126 -94 243 -216 300 l-57 27 -680 0 -680 0 -67 -33 c-114
-56 -187 -156 -208 -284 -14 -90 -14 -2274 1 -2353 28 -154 142 -271 297 -304
72 -15 1225 -15 1307 0 77 14 146 50 199 103 49 48 95 136 103 194 l5 39 76
-43 c42 -24 103 -53 137 -64 60 -20 78 -20 1116 -18 1009 3 1056 4 1089 22 97
51 187 156 247 284 38 81 73 206 73 260 0 28 11 46 59 98 105 115 156 258 168
478 6 119 7 120 44 170 91 120 122 323 73 485 -11 39 -11 49 1 67 47 72 80
291 63 417 -25 183 -205 357 -473 456 l-70 26 -501 3 -501 3 18 92 c85 437 25
833 -167 1103 -101 143 -267 258 -408 283 -76 14 -108 13 -176 -5z m207 -225
c46 -17 74 -38 138 -103 86 -87 130 -159 171 -278 78 -231 78 -553 -2 -866
-31 -125 -31 -137 10 -178 l34 -34 549 0 c613 0 592 2 734 -71 93 -48 180
-125 208 -182 24 -50 28 -146 9 -258 -10 -61 -15 -72 -39 -85 -58 -29 -65 -79
-25 -178 21 -52 27 -84 28 -146 0 -101 -21 -166 -76 -227 -24 -26 -48 -57 -54
-69 -6 -12 -11 -77 -11 -155 0 -192 -34 -305 -112 -377 -20 -19 -53 -49 -73
-67 -35 -32 -36 -35 -36 -107 0 -86 -17 -153 -59 -244 -37 -80 -80 -136 -125
-163 -33 -21 -41 -21 -1035 -21 -941 0 -1004 1 -1048 18 -62 23 -151 81 -208
133 l-45 42 0 847 0 847 88 65 c297 222 512 567 726 1164 l36 101 0 289 0 289
28 17 c38 24 119 23 189 -3z m-1370 -1481 c17 -10 42 -32 55 -50 l23 -33 0
-1177 0 -1177 -21 -28 c-11 -15 -36 -38 -54 -51 l-33 -22 -629 0 c-598 0 -631
1 -666 19 -22 11 -46 35 -60 59 l-22 40 0 1156 c0 1235 -2 1195 48 1239 51 46
61 47 712 44 562 -2 618 -3 647 -19z"/>
</g>
</svg>
