<?xml version="1.0" standalone="no"?>
<!DOCTYPE svg PUBLIC "-//W3C//DTD SVG 20010904//EN"
 "http://www.w3.org/TR/2001/REC-SVG-20010904/DTD/svg10.dtd">
<svg version="1.0" xmlns="http://www.w3.org/2000/svg"
 width="800.000000pt" height="800.000000pt" viewBox="0 0 800.000000 800.000000"
 preserveAspectRatio="xMidYMid meet">
<metadata>
Created by potrace 1.16, written by Peter Selinger 2001-2019
</metadata>
<g transform="translate(0.000000,800.000000) scale(0.100000,-0.100000)"
fill="#2DCC70" stroke="none">
<path d="M3725 7724 c-43 -7 -124 -34 -169 -56 l-39 -20 6 -331 c4 -183 10
-469 13 -637 7 -346 2 -384 -62 -512 -30 -60 -498 -838 -609 -1014 -18 -28
-110 -189 -204 -357 l-171 -306 0 -1916 0 -1915 1818 0 c1538 0 1827 3 1885
15 222 47 446 268 531 526 59 177 53 290 -23 446 -54 112 -58 123 -38 123 6 0
80 34 163 75 137 66 160 82 232 152 134 131 199 257 209 403 9 128 -31 241
-141 393 -31 43 -56 80 -56 81 0 2 57 32 128 66 117 57 134 70 218 154 69 69
99 109 127 166 72 146 83 294 33 443 -41 120 -72 165 -213 305 l-133 133 83
89 c92 100 156 199 188 292 17 51 21 86 20 188 -1 361 -175 592 -514 682 -81
22 -90 22 -1119 25 -571 2 -1038 7 -1038 12 0 4 12 104 26 222 24 200 25 237
22 574 -3 332 -6 368 -27 465 -101 458 -334 810 -636 962 -107 55 -180 70
-335 73 -80 2 -158 1 -175 -1z"/>
<path d="M1253 4722 l-773 -2 0 -2312 0 -2311 771 6 c424 3 773 8 775 10 2 2
3 1041 2 2308 l-3 2304 -772 -3z"/>
</g>
</svg>
