<?xml version="1.0" standalone="no"?>
<!DOCTYPE svg PUBLIC "-//W3C//DTD SVG 20010904//EN"
 "http://www.w3.org/TR/2001/REC-SVG-20010904/DTD/svg10.dtd">
<svg version="1.0" xmlns="http://www.w3.org/2000/svg"
 width="600.000000pt" height="600.000000pt" viewBox="0 0 600.000000 600.000000"
 preserveAspectRatio="xMidYMid meet">
<metadata>
Created by potrace 1.16, written by Peter Selinger 2001-2019
</metadata>
<g transform="translate(0.000000,600.000000) scale(0.100000,-0.100000)"
fill="current" stroke="none">
<path d="M2650 5985 c-679 -83 -1297 -382 -1775 -860 -429 -429 -717 -976
-830 -1575 -61 -327 -61 -773 0 -1100 201 -1066 953 -1938 1975 -2291 125 -43
295 -88 430 -114 327 -61 773 -61 1100 0 1207 227 2152 1157 2394 2356 72 355
76 800 11 1149 -152 805 -615 1503 -1298 1957 -392 261 -836 422 -1317 478
-153 18 -541 18 -690 0z m661 -1435 c74 -38 127 -153 150 -326 21 -157 -8
-293 -115 -549 l-55 -130 377 -5 c372 -5 378 -5 425 -29 91 -44 152 -170 128
-261 -12 -46 -64 -121 -101 -147 -11 -8 -20 -17 -20 -21 0 -5 22 -34 50 -67
92 -109 90 -155 -15 -278 -36 -42 -65 -81 -65 -86 0 -6 9 -15 19 -20 26 -14
71 -108 71 -147 0 -51 -17 -85 -73 -141 l-51 -53 22 -68 c28 -87 28 -126 0
-182 -18 -34 -35 -51 -73 -70 l-49 -25 -711 0 c-682 0 -711 1 -742 19 -17 11
-37 31 -43 45 -18 39 -27 865 -11 1051 28 320 108 496 367 804 224 265 235
287 238 466 1 95 5 122 22 155 41 79 165 110 255 65z m-1134 -1333 c72 -39 68
1 71 -717 2 -600 1 -647 -15 -679 -10 -19 -31 -44 -46 -55 -27 -20 -41 -21
-312 -21 -271 0 -285 1 -312 21 -65 48 -63 23 -63 722 0 663 1 675 43 711 44
36 87 41 347 38 222 -2 259 -4 287 -20z"/>
</g>
</svg>
