<?xml version="1.0" standalone="no"?>
<!DOCTYPE svg PUBLIC "-//W3C//DTD SVG 20010904//EN"
 "http://www.w3.org/TR/2001/REC-SVG-20010904/DTD/svg10.dtd">
<svg version="1.0" xmlns="http://www.w3.org/2000/svg"
 width="253.000000pt" height="199.000000pt" viewBox="0 0 253.000000 199.000000"
 preserveAspectRatio="xMidYMid meet">
<metadata>
Created by potrace 1.16, written by Peter Selinger 2001-2019
</metadata>
<g transform="translate(0.000000,199.000000) scale(0.100000,-0.100000)"
fill="#000000" stroke="none">
<path d="M1082 1710 c-247 -65 -437 -259 -498 -510 -18 -73 -17 -240 1 -320
53 -225 245 -429 465 -494 146 -44 290 -40 433 9 101 35 173 81 257 166 336
336 234 905 -198 1106 -138 64 -315 81 -460 43z m153 -486 c82 -140 155 -263
162 -272 10 -14 12 32 13 256 l0 272 80 0 80 0 0 -405 0 -405 -82 0 -83 0
-160 276 -160 275 -3 -275 -2 -276 -85 0 -85 0 0 405 0 405 88 0 88 0 149
-256z"/>
</g>
</svg>
