<?xml version="1.0" standalone="no"?>
<!DOCTYPE svg PUBLIC "-//W3C//DTD SVG 20010904//EN"
 "http://www.w3.org/TR/2001/REC-SVG-20010904/DTD/svg10.dtd">
<svg version="1.0" xmlns="http://www.w3.org/2000/svg"
 width="240.000000pt" height="240.000000pt" viewBox="0 0 240.000000 240.000000"
 preserveAspectRatio="xMidYMid meet">
<metadata>
Created by potrace 1.16, written by Peter Selinger 2001-2019
</metadata>
<g transform="translate(0.000000,240.000000) scale(0.100000,-0.100000)"
fill="#000000" stroke="none">
<path d="M1065 2394 c-104 -16 -211 -41 -285 -67 -375 -131 -650 -420 -747
-785 -22 -82 -26 -119 -27 -242 0 -82 5 -171 13 -205 49 -231 168 -439 344
-599 l87 -79 0 -208 0 -207 201 110 200 110 92 -18 c126 -26 387 -26 507 -1
304 64 558 220 730 449 487 646 116 1538 -715 1719 -87 19 -332 33 -400 23z
m324 -1114 c4 0 124 65 267 143 343 190 316 177 278 136 -50 -56 -534 -571
-576 -614 l-39 -40 -57 60 c-32 33 -100 106 -153 162 l-95 102 -240 -130
c-131 -72 -264 -144 -294 -161 l-54 -31 34 39 c18 22 164 177 323 347 l290
307 154 -160 c85 -88 158 -160 162 -160z"/>
</g>
</svg>
