<?xml version="1.0" standalone="no"?>
<!DOCTYPE svg PUBLIC "-//W3C//DTD SVG 20010904//EN"
 "http://www.w3.org/TR/2001/REC-SVG-20010904/DTD/svg10.dtd">
<svg version="1.0" xmlns="http://www.w3.org/2000/svg"
 width="256.000000pt" height="256.000000pt" viewBox="0 0 256.000000 256.000000"
 preserveAspectRatio="xMidYMid meet">
<metadata>
Created by potrace 1.16, written by Peter Selinger 2001-2019
</metadata>
<g transform="translate(0.000000,256.000000) scale(0.100000,-0.100000)"
fill="#000000" stroke="none">
<path d="M597 1488 c16 -6 15 -7 -3 -7 -12 -1 -38 -12 -59 -26 -20 -15 -39
-24 -42 -21 -2 2 15 16 39 30 24 14 39 26 34 26 -33 0 -136 -101 -136 -134 0
-6 12 8 26 32 14 24 28 41 30 39 3 -3 -6 -22 -21 -42 -14 -21 -25 -47 -26 -59
0 -18 -1 -19 -7 -3 -4 9 -7 -10 -7 -43 0 -33 3 -52 7 -43 6 16 7 15 7 -3 1
-12 12 -38 26 -59 15 -20 24 -39 21 -42 -2 -2 -16 15 -30 39 -14 24 -26 38
-26 32 0 -33 103 -134 136 -134 5 0 -10 12 -34 26 -24 14 -41 28 -39 30 3 3
22 -6 42 -21 21 -14 47 -25 59 -26 18 0 19 -1 3 -7 -9 -4 10 -7 43 -7 33 0 52
3 43 7 -16 6 -15 7 3 7 12 1 38 12 59 26 20 15 39 24 42 21 2 -2 -15 -16 -39
-30 -24 -14 -39 -26 -34 -26 33 0 136 101 136 134 0 6 -12 -8 -26 -32 -14 -24
-28 -41 -30 -39 -3 3 6 22 21 42 14 21 25 47 26 59 0 18 1 19 7 3 4 -9 7 10 7
43 0 33 -3 52 -7 43 -6 -16 -7 -15 -7 3 -1 12 -12 38 -26 59 -15 20 -24 39
-21 42 2 2 16 -15 30 -39 14 -24 26 -38 26 -32 0 33 -103 134 -136 134 -5 0
10 -12 34 -26 24 -14 41 -28 39 -30 -3 -3 -22 6 -42 21 -21 14 -47 25 -59 26
-18 0 -19 1 -3 7 9 4 -10 7 -43 7 -33 0 -52 -3 -43 -7z"/>
<path d="M1237 1488 c16 -6 15 -7 -3 -7 -12 -1 -38 -12 -59 -26 -20 -15 -39
-24 -42 -21 -2 2 15 16 39 30 24 14 39 26 34 26 -33 0 -136 -101 -136 -134 0
-6 12 8 26 32 14 24 28 41 30 39 3 -3 -6 -22 -21 -42 -14 -21 -25 -47 -26 -59
0 -18 -1 -19 -7 -3 -4 9 -7 -10 -7 -43 0 -33 3 -52 7 -43 6 16 7 15 7 -3 1
-12 12 -38 26 -59 15 -20 24 -39 21 -42 -2 -2 -16 15 -30 39 -14 24 -26 38
-26 32 0 -33 103 -134 136 -134 5 0 -10 12 -34 26 -24 14 -41 28 -39 30 3 3
22 -6 42 -21 21 -14 47 -25 59 -26 18 0 19 -1 3 -7 -9 -4 10 -7 43 -7 33 0 52
3 43 7 -16 6 -15 7 3 7 12 1 38 12 59 26 20 15 39 24 42 21 2 -2 -15 -16 -39
-30 -24 -14 -39 -26 -34 -26 33 0 136 101 136 134 0 6 -12 -8 -26 -32 -14 -24
-28 -41 -30 -39 -3 3 6 22 21 42 14 21 25 47 26 59 0 18 1 19 7 3 4 -9 7 10 7
43 0 33 -3 52 -7 43 -6 -16 -7 -15 -7 3 -1 12 -12 38 -26 59 -15 20 -24 39
-21 42 2 2 16 -15 30 -39 14 -24 26 -38 26 -32 0 33 -103 134 -136 134 -5 0
10 -12 34 -26 24 -14 41 -28 39 -30 -3 -3 -22 6 -42 21 -21 14 -47 25 -59 26
-18 0 -19 1 -3 7 9 4 -10 7 -43 7 -33 0 -52 -3 -43 -7z"/>
<path d="M1877 1488 c16 -6 15 -7 -3 -7 -12 -1 -38 -12 -59 -26 -20 -15 -39
-24 -42 -21 -2 2 15 16 39 30 24 14 39 26 34 26 -33 0 -136 -101 -136 -134 0
-6 12 8 26 32 14 24 28 41 30 39 3 -3 -6 -22 -21 -42 -14 -21 -25 -47 -26 -59
0 -18 -1 -19 -7 -3 -4 9 -7 -10 -7 -43 0 -33 3 -52 7 -43 6 16 7 15 7 -3 1
-12 12 -38 26 -59 15 -20 24 -39 21 -42 -2 -2 -16 15 -30 39 -14 24 -26 38
-26 32 0 -33 103 -134 136 -134 5 0 -10 12 -34 26 -24 14 -41 28 -39 30 3 3
22 -6 42 -21 21 -14 47 -25 59 -26 18 0 19 -1 3 -7 -9 -4 10 -7 43 -7 33 0 52
3 43 7 -16 6 -15 7 3 7 12 1 38 12 59 26 20 15 39 24 42 21 2 -2 -15 -16 -39
-30 -24 -14 -39 -26 -34 -26 33 0 136 101 136 134 0 6 -12 -8 -26 -32 -14 -24
-28 -41 -30 -39 -3 3 6 22 21 42 14 21 25 47 26 59 0 18 1 19 7 3 4 -9 7 10 7
43 0 33 -3 52 -7 43 -6 -16 -7 -15 -7 3 -1 12 -12 38 -26 59 -15 20 -24 39
-21 42 2 2 16 -15 30 -39 14 -24 26 -38 26 -32 0 33 -103 134 -136 134 -5 0
10 -12 34 -26 24 -14 41 -28 39 -30 -3 -3 -22 6 -42 21 -21 14 -47 25 -59 26
-18 0 -19 1 -3 7 9 4 -10 7 -43 7 -33 0 -52 -3 -43 -7z"/>
</g>
</svg>
