<?xml version="1.0" standalone="no"?>
<!DOCTYPE svg PUBLIC "-//W3C//DTD SVG 20010904//EN"
 "http://www.w3.org/TR/2001/REC-SVG-20010904/DTD/svg10.dtd">
<svg version="1.0" xmlns="http://www.w3.org/2000/svg"
 width="840.000000pt" height="1002.000000pt" viewBox="0 0 840.000000 1002.000000"
 preserveAspectRatio="xMidYMid meet">
<metadata>
Created by potrace 1.16, written by Peter Selinger 2001-2019
</metadata>
<g transform="translate(0.000000,1002.000000) scale(0.100000,-0.100000)"
fill="#000000" stroke="none">
<path d="M4091 9604 c-124 -33 -227 -121 -284 -241 l-32 -68 -3 -302 -3 -302
-37 -7 c-1074 -186 -1947 -1001 -2208 -2059 -63 -256 -74 -365 -84 -820 -16
-714 -64 -1153 -180 -1631 -101 -417 -270 -817 -425 -1009 -66 -81 -421 -644
-480 -760 -123 -242 -174 -470 -126 -563 36 -70 122 -132 231 -169 52 -17 125
-18 1307 -21 l1251 -3 7 -87 c34 -413 290 -790 660 -971 638 -312 1398 -2
1640 669 34 95 65 253 65 330 l0 59 1248 3 c1183 3 1250 4 1302 22 115 38 194
96 231 167 48 94 -2 318 -126 564 -56 111 -301 501 -479 763 -303 446 -501
1150 -577 2057 -6 72 -14 333 -19 580 -9 491 -14 550 -75 800 -157 651 -526
1200 -1076 1603 -293 214 -704 392 -1072 463 l-116 23 -3 300 -3 301 -32 68
c-92 194 -302 295 -502 241z"/>
</g>
</svg>
