<?xml version="1.0" standalone="no"?>
<!DOCTYPE svg PUBLIC "-//W3C//DTD SVG 20010904//EN"
 "http://www.w3.org/TR/2001/REC-SVG-20010904/DTD/svg10.dtd">
<svg version="1.0" xmlns="http://www.w3.org/2000/svg"
 width="225.000000pt" height="225.000000pt" viewBox="0 0 225.000000 225.000000"
 preserveAspectRatio="xMidYMid meet">
<metadata>
Created by potrace 1.16, written by Peter Selinger 2001-2019
</metadata>
<g transform="translate(0.000000,225.000000) scale(0.100000,-0.100000)"
fill="#FFFFFF" stroke="none">
<path d="M839 2207 c-196 -36 -366 -191 -423 -386 -20 -67 -21 -217 -2 -286
24 -93 68 -167 141 -241 80 -80 163 -126 265 -148 70 -15 66 -18 -34 -31 -69
-9 -169 -41 -246 -79 -294 -144 -480 -417 -515 -753 l-6 -63 531 0 532 0 -35
40 c-51 60 -95 148 -117 236 -50 196 2 409 137 555 50 54 52 57 30 63 -12 3
-35 6 -52 6 -57 1 -59 17 -3 23 81 10 202 74 276 147 82 82 138 192 154 307
52 364 -272 676 -633 610z"/>
<path d="M1524 1250 c-234 -34 -440 -220 -500 -451 -22 -83 -22 -225 0 -308
54 -208 229 -383 436 -436 37 -10 103 -17 155 -17 52 0 118 7 155 17 207 53
380 226 436 435 22 84 22 225 0 309 -77 298 -376 496 -682 451z m-24 -355
l115 -115 117 117 118 118 62 -63 63 -62 -118 -118 -117 -117 117 -118 118
-117 -63 -62 -62 -63 -117 118 -118 117 -117 -117 -118 -118 -62 63 -63 62
118 118 117 117 -117 117 -118 118 60 60 c33 33 62 60 65 60 3 0 57 -52 120
-115z"/>
</g>
</svg>
