<?xml version="1.0" standalone="no"?>
<!DOCTYPE svg PUBLIC "-//W3C//DTD SVG 20010904//EN"
 "http://www.w3.org/TR/2001/REC-SVG-20010904/DTD/svg10.dtd">
<svg version="1.0" xmlns="http://www.w3.org/2000/svg"
 width="840.000000pt" height="864.000000pt" viewBox="0 0 840.000000 864.000000"
 preserveAspectRatio="xMidYMid meet">
<metadata>
Created by potrace 1.16, written by Peter Selinger 2001-2019
</metadata>
<g transform="translate(0.000000,864.000000) scale(0.100000,-0.100000)"
fill="#2DCC70" stroke="none">
<path d="M310 8223 c0 -22 703 -3529 709 -3535 3 -4 168 -17 366 -28 198 -11
558 -31 800 -45 242 -14 564 -32 715 -40 151 -8 516 -29 810 -45 685 -39 762
-43 1440 -80 311 -17 580 -33 598 -36 27 -4 33 -9 30 -27 -3 -24 256 -1 -3323
-297 -1137 -94 -1449 -120 -1451 -123 -1 -1 -20 -85 -42 -187 -23 -102 -69
-306 -102 -455 -72 -316 -162 -719 -225 -1000 -25 -110 -133 -587 -239 -1060
-107 -473 -192 -862 -191 -863 3 -4 1324 659 2490 1248 248 125 918 463 1490
751 572 287 1418 713 1880 946 462 233 1129 568 1482 746 354 177 643 325 643
328 0 3 -89 49 -197 102 -248 119 -1380 666 -1568 757 -77 37 -471 227 -875
422 -832 403 -1611 779 -2680 1295 -404 196 -935 452 -1180 571 -950 459
-1372 662 -1376 662 -2 0 -4 -3 -4 -7z"/>
</g>
</svg>
