<?xml version="1.0" standalone="no"?>
<!DOCTYPE svg PUBLIC "-//W3C//DTD SVG 20010904//EN"
 "http://www.w3.org/TR/2001/REC-SVG-20010904/DTD/svg10.dtd">
<svg version="1.0" xmlns="http://www.w3.org/2000/svg"
 width="1024.000000pt" height="1024.000000pt" viewBox="0 0 1024.000000 1024.000000"
 preserveAspectRatio="xMidYMid meet">
<metadata>
Created by potrace 1.16, written by Peter Selinger 2001-2019
</metadata>
<g transform="translate(0.000000,1024.000000) scale(0.100000,-0.100000)"
fill="#000000" stroke="none">
<path d="M4175 9371 c-50 -22 -101 -79 -115 -128 -6 -21 -46 -289 -90 -596
-43 -308 -81 -561 -83 -564 -3 -2 -58 -29 -122 -58 -173 -80 -348 -185 -581
-350 -9 -7 -167 52 -556 209 l-542 218 -67 -4 c-76 -4 -124 -30 -163 -88 -26
-40 -844 -1457 -871 -1509 -19 -38 -23 -130 -7 -172 6 -14 22 -39 37 -57 15
-17 229 -190 477 -384 l450 -353 -9 -90 c-10 -115 -10 -533 0 -650 l8 -90
-428 -335 c-235 -184 -449 -355 -475 -378 -26 -24 -52 -60 -59 -80 -17 -51
-14 -134 7 -173 27 -54 802 -1396 850 -1474 56 -92 96 -118 184 -123 66 -4 67
-4 531 183 255 103 499 202 543 220 l78 32 107 -76 c161 -116 404 -255 558
-319 45 -19 53 -27 58 -55 3 -17 39 -273 81 -567 41 -294 79 -550 85 -568 15
-47 66 -102 114 -123 38 -18 91 -19 945 -19 854 0 907 1 945 19 48 21 99 76
114 123 6 18 44 276 86 573 41 297 78 552 83 568 6 23 24 35 112 76 182 83
409 218 550 326 l56 43 79 -33 c44 -18 289 -117 544 -220 464 -187 465 -187
531 -183 81 4 126 31 169 98 33 51 839 1447 865 1498 22 43 23 140 1 186 -24
50 -49 71 -528 446 l-428 335 8 90 c10 117 10 535 0 650 l-9 90 465 363 c336
263 470 374 485 400 27 50 36 111 22 162 -11 40 -846 1500 -896 1566 -34 46
-98 74 -168 74 -58 0 -116 -22 -971 -369 -82 -34 -155 -61 -162 -61 -7 0 -52
28 -100 63 -175 125 -320 208 -620 352 -1 0 -39 259 -83 575 -85 601 -89 617
-147 672 -64 61 -18 58 -1005 58 -852 0 -905 -1 -943 -19z m1102 -2772 c620
-69 1132 -513 1283 -1114 88 -348 53 -689 -104 -1010 -212 -433 -577 -715
-1056 -816 -150 -32 -410 -32 -560 0 -392 83 -707 287 -933 602 -419 588 -350
1396 163 1909 319 320 766 478 1207 429z"/>
</g>
</svg>
