<?xml version="1.0" standalone="no"?>
<!DOCTYPE svg PUBLIC "-//W3C//DTD SVG 20010904//EN"
 "http://www.w3.org/TR/2001/REC-SVG-20010904/DTD/svg10.dtd">
<svg version="1.0" xmlns="http://www.w3.org/2000/svg"
 width="200.000000pt" height="200.000000pt" viewBox="0 0 200.000000 200.000000"
 preserveAspectRatio="xMidYMid meet">
<metadata>
Created by potrace 1.16, written by Peter Selinger 2001-2019
</metadata>
<g transform="translate(0.000000,200.000000) scale(0.100000,-0.100000)"
fill="#000000" stroke="none">
<path d="M1029 1651 l-29 -29 0 -130 0 -130 -47 -7 c-195 -29 -424 -183 -546
-368 -104 -156 -159 -372 -142 -554 8 -88 26 -113 80 -113 30 0 39 7 76 58
137 189 318 303 527 331 l52 8 0 -141 c0 -110 3 -146 15 -163 20 -29 75 -46
106 -34 13 5 158 144 322 308 l297 299 0 44 0 45 -303 302 c-291 291 -304 303
-340 303 -29 0 -46 -7 -68 -29z m338 -878 l-257 -258 0 128 0 129 -31 30 c-30
30 -31 31 -102 24 -210 -19 -407 -114 -551 -266 l-59 -62 7 69 c21 208 126
403 284 529 80 64 220 129 322 151 124 26 130 34 130 182 l0 116 257 -258 258
-257 -258 -257z"/>
</g>
</svg>
