<?xml version="1.0" standalone="no"?>
<!DOCTYPE svg PUBLIC "-//W3C//DTD SVG 20010904//EN"
 "http://www.w3.org/TR/2001/REC-SVG-20010904/DTD/svg10.dtd">
<svg version="1.0" xmlns="http://www.w3.org/2000/svg"
 width="225.000000pt" height="225.000000pt" viewBox="0 0 225.000000 225.000000"
 preserveAspectRatio="xMidYMid meet">
<metadata>
Created by potrace 1.16, written by Peter Selinger 2001-2019
</metadata>
<g transform="translate(0.000000,225.000000) scale(0.100000,-0.100000)"
fill="current" stroke="none">
<path d="M499 1751 c-31 -31 -37 -67 -18 -104 6 -12 123 -135 260 -272 l249
-250 -246 -245 c-135 -135 -252 -257 -260 -272 -22 -42 -17 -76 15 -109 31
-31 67 -37 104 -18 12 6 135 123 272 260 l250 249 245 -246 c135 -135 257
-252 272 -260 42 -22 76 -17 109 15 32 33 37 67 15 109 -8 15 -125 137 -260
272 l-246 245 249 250 c137 137 254 260 260 272 19 37 13 73 -18 104 -33 32
-67 37 -109 15 -15 -8 -137 -125 -272 -260 l-245 -246 -250 249 c-137 137
-260 254 -272 260 -37 19 -73 13 -104 -18z"/>
</g>
</svg>
